<svg xmlns="http://www.w3.org/2000/svg" width="800" height="800" viewBox="0 0 800 800">
  <defs>
    <linearGradient id="bg" x1="0%" y1="0%" x2="100%" y2="100%">
      <stop offset="0%" stop-color="#101014"/>
      <stop offset="55%" stop-color="#17171d"/>
      <stop offset="100%" stop-color="#0b0b0c"/>
    </linearGradient>
    <linearGradient id="gold" x1="0%" y1="0%" x2="100%" y2="0%">
      <stop offset="0%" stop-color="#fbbf24"/>
      <stop offset="50%" stop-color="#f5d76e"/>
      <stop offset="100%" stop-color="#f59e0b"/>
    </linearGradient>
    <linearGradient id="burst" x1="0%" y1="0%" x2="100%" y2="100%">
      <stop offset="0%" stop-color="#fde68a"/>
      <stop offset="100%" stop-color="#f59e0b"/>
    </linearGradient>
    <radialGradient id="glow" cx="50%" cy="42%" r="65%">
      <stop offset="0%" stop-color="#f59e0b" stop-opacity="0.28"/>
      <stop offset="60%" stop-color="#f59e0b" stop-opacity="0.08"/>
      <stop offset="100%" stop-color="#f59e0b" stop-opacity="0"/>
    </radialGradient>
  </defs>
  <rect width="800" height="800" fill="url(#bg)"/>
  <rect width="800" height="800" fill="url(#glow)"/>
  <g opacity="0.63"><line x1="68" y1="558" x2="135.0" y2="558.0" stroke="url(#burst)" stroke-width="1.5" stroke-linecap="round" opacity="0.7"/><line x1="68" y1="558" x2="126.0" y2="591.5" stroke="url(#burst)" stroke-width="1.5" stroke-linecap="round" opacity="0.7"/><line x1="68" y1="558" x2="101.5" y2="616.0" stroke="url(#burst)" stroke-width="1.5" stroke-linecap="round" opacity="0.7"/><line x1="68" y1="558" x2="68.0" y2="625.0" stroke="url(#burst)" stroke-width="1.5" stroke-linecap="round" opacity="0.7"/><line x1="68" y1="558" x2="34.5" y2="616.0" stroke="url(#burst)" stroke-width="1.5" stroke-linecap="round" opacity="0.7"/><line x1="68" y1="558" x2="10.0" y2="591.5" stroke="url(#burst)" stroke-width="1.5" stroke-linecap="round" opacity="0.7"/><line x1="68" y1="558" x2="1.0" y2="558.0" stroke="url(#burst)" stroke-width="1.5" stroke-linecap="round" opacity="0.7"/><line x1="68" y1="558" x2="10.0" y2="524.5" stroke="url(#burst)" stroke-width="1.5" stroke-linecap="round" opacity="0.7"/><line x1="68" y1="558" x2="34.5" y2="500.0" stroke="url(#burst)" stroke-width="1.5" stroke-linecap="round" opacity="0.7"/><line x1="68" y1="558" x2="68.0" y2="491.0" stroke="url(#burst)" stroke-width="1.5" stroke-linecap="round" opacity="0.7"/><line x1="68" y1="558" x2="101.5" y2="500.0" stroke="url(#burst)" stroke-width="1.5" stroke-linecap="round" opacity="0.7"/><line x1="68" y1="558" x2="126.0" y2="524.5" stroke="url(#burst)" stroke-width="1.5" stroke-linecap="round" opacity="0.7"/><circle cx="68" cy="558" r="3" fill="#fde68a"/></g>
<g opacity="0.41"><line x1="235" y1="21" x2="267.0" y2="21.0" stroke="url(#burst)" stroke-width="1.5" stroke-linecap="round" opacity="0.7"/><line x1="235" y1="21" x2="262.7" y2="37.0" stroke="url(#burst)" stroke-width="1.5" stroke-linecap="round" opacity="0.7"/><line x1="235" y1="21" x2="251.0" y2="48.7" stroke="url(#burst)" stroke-width="1.5" stroke-linecap="round" opacity="0.7"/><line x1="235" y1="21" x2="235.0" y2="53.0" stroke="url(#burst)" stroke-width="1.5" stroke-linecap="round" opacity="0.7"/><line x1="235" y1="21" x2="219.0" y2="48.7" stroke="url(#burst)" stroke-width="1.5" stroke-linecap="round" opacity="0.7"/><line x1="235" y1="21" x2="207.3" y2="37.0" stroke="url(#burst)" stroke-width="1.5" stroke-linecap="round" opacity="0.7"/><line x1="235" y1="21" x2="203.0" y2="21.0" stroke="url(#burst)" stroke-width="1.5" stroke-linecap="round" opacity="0.7"/><line x1="235" y1="21" x2="207.3" y2="5.0" stroke="url(#burst)" stroke-width="1.5" stroke-linecap="round" opacity="0.7"/><line x1="235" y1="21" x2="219.0" y2="-6.7" stroke="url(#burst)" stroke-width="1.5" stroke-linecap="round" opacity="0.7"/><line x1="235" y1="21" x2="235.0" y2="-11.0" stroke="url(#burst)" stroke-width="1.5" stroke-linecap="round" opacity="0.7"/><line x1="235" y1="21" x2="251.0" y2="-6.7" stroke="url(#burst)" stroke-width="1.5" stroke-linecap="round" opacity="0.7"/><line x1="235" y1="21" x2="262.7" y2="5.0" stroke="url(#burst)" stroke-width="1.5" stroke-linecap="round" opacity="0.7"/><circle cx="235" cy="21" r="3" fill="#fde68a"/></g>
<g opacity="0.43"><line x1="575" y1="387" x2="626.0" y2="387.0" stroke="url(#burst)" stroke-width="1.5" stroke-linecap="round" opacity="0.7"/><line x1="575" y1="387" x2="619.2" y2="412.5" stroke="url(#burst)" stroke-width="1.5" stroke-linecap="round" opacity="0.7"/><line x1="575" y1="387" x2="600.5" y2="431.2" stroke="url(#burst)" stroke-width="1.5" stroke-linecap="round" opacity="0.7"/><line x1="575" y1="387" x2="575.0" y2="438.0" stroke="url(#burst)" stroke-width="1.5" stroke-linecap="round" opacity="0.7"/><line x1="575" y1="387" x2="549.5" y2="431.2" stroke="url(#burst)" stroke-width="1.5" stroke-linecap="round" opacity="0.7"/><line x1="575" y1="387" x2="530.8" y2="412.5" stroke="url(#burst)" stroke-width="1.5" stroke-linecap="round" opacity="0.7"/><line x1="575" y1="387" x2="524.0" y2="387.0" stroke="url(#burst)" stroke-width="1.5" stroke-linecap="round" opacity="0.7"/><line x1="575" y1="387" x2="530.8" y2="361.5" stroke="url(#burst)" stroke-width="1.5" stroke-linecap="round" opacity="0.7"/><line x1="575" y1="387" x2="549.5" y2="342.8" stroke="url(#burst)" stroke-width="1.5" stroke-linecap="round" opacity="0.7"/><line x1="575" y1="387" x2="575.0" y2="336.0" stroke="url(#burst)" stroke-width="1.5" stroke-linecap="round" opacity="0.7"/><line x1="575" y1="387" x2="600.5" y2="342.8" stroke="url(#burst)" stroke-width="1.5" stroke-linecap="round" opacity="0.7"/><line x1="575" y1="387" x2="619.2" y2="361.5" stroke="url(#burst)" stroke-width="1.5" stroke-linecap="round" opacity="0.7"/><circle cx="575" cy="387" r="3" fill="#fde68a"/></g>
<g opacity="0.44"><line x1="488" y1="280" x2="533.0" y2="280.0" stroke="url(#burst)" stroke-width="1.5" stroke-linecap="round" opacity="0.7"/><line x1="488" y1="280" x2="527.0" y2="302.5" stroke="url(#burst)" stroke-width="1.5" stroke-linecap="round" opacity="0.7"/><line x1="488" y1="280" x2="510.5" y2="319.0" stroke="url(#burst)" stroke-width="1.5" stroke-linecap="round" opacity="0.7"/><line x1="488" y1="280" x2="488.0" y2="325.0" stroke="url(#burst)" stroke-width="1.5" stroke-linecap="round" opacity="0.7"/><line x1="488" y1="280" x2="465.5" y2="319.0" stroke="url(#burst)" stroke-width="1.5" stroke-linecap="round" opacity="0.7"/><line x1="488" y1="280" x2="449.0" y2="302.5" stroke="url(#burst)" stroke-width="1.5" stroke-linecap="round" opacity="0.7"/><line x1="488" y1="280" x2="443.0" y2="280.0" stroke="url(#burst)" stroke-width="1.5" stroke-linecap="round" opacity="0.7"/><line x1="488" y1="280" x2="449.0" y2="257.5" stroke="url(#burst)" stroke-width="1.5" stroke-linecap="round" opacity="0.7"/><line x1="488" y1="280" x2="465.5" y2="241.0" stroke="url(#burst)" stroke-width="1.5" stroke-linecap="round" opacity="0.7"/><line x1="488" y1="280" x2="488.0" y2="235.0" stroke="url(#burst)" stroke-width="1.5" stroke-linecap="round" opacity="0.7"/><line x1="488" y1="280" x2="510.5" y2="241.0" stroke="url(#burst)" stroke-width="1.5" stroke-linecap="round" opacity="0.7"/><line x1="488" y1="280" x2="527.0" y2="257.5" stroke="url(#burst)" stroke-width="1.5" stroke-linecap="round" opacity="0.7"/><circle cx="488" cy="280" r="3" fill="#fde68a"/></g>
<g opacity="0.58"><line x1="319" y1="234" x2="365.0" y2="234.0" stroke="url(#burst)" stroke-width="1.5" stroke-linecap="round" opacity="0.7"/><line x1="319" y1="234" x2="358.8" y2="257.0" stroke="url(#burst)" stroke-width="1.5" stroke-linecap="round" opacity="0.7"/><line x1="319" y1="234" x2="342.0" y2="273.8" stroke="url(#burst)" stroke-width="1.5" stroke-linecap="round" opacity="0.7"/><line x1="319" y1="234" x2="319.0" y2="280.0" stroke="url(#burst)" stroke-width="1.5" stroke-linecap="round" opacity="0.7"/><line x1="319" y1="234" x2="296.0" y2="273.8" stroke="url(#burst)" stroke-width="1.5" stroke-linecap="round" opacity="0.7"/><line x1="319" y1="234" x2="279.2" y2="257.0" stroke="url(#burst)" stroke-width="1.5" stroke-linecap="round" opacity="0.7"/><line x1="319" y1="234" x2="273.0" y2="234.0" stroke="url(#burst)" stroke-width="1.5" stroke-linecap="round" opacity="0.7"/><line x1="319" y1="234" x2="279.2" y2="211.0" stroke="url(#burst)" stroke-width="1.5" stroke-linecap="round" opacity="0.7"/><line x1="319" y1="234" x2="296.0" y2="194.2" stroke="url(#burst)" stroke-width="1.5" stroke-linecap="round" opacity="0.7"/><line x1="319" y1="234" x2="319.0" y2="188.0" stroke="url(#burst)" stroke-width="1.5" stroke-linecap="round" opacity="0.7"/><line x1="319" y1="234" x2="342.0" y2="194.2" stroke="url(#burst)" stroke-width="1.5" stroke-linecap="round" opacity="0.7"/><line x1="319" y1="234" x2="358.8" y2="211.0" stroke="url(#burst)" stroke-width="1.5" stroke-linecap="round" opacity="0.7"/><circle cx="319" cy="234" r="3" fill="#fde68a"/></g>
<g opacity="0.44"><line x1="472" y1="199" x2="539.0" y2="199.0" stroke="url(#burst)" stroke-width="1.5" stroke-linecap="round" opacity="0.7"/><line x1="472" y1="199" x2="530.0" y2="232.5" stroke="url(#burst)" stroke-width="1.5" stroke-linecap="round" opacity="0.7"/><line x1="472" y1="199" x2="505.5" y2="257.0" stroke="url(#burst)" stroke-width="1.5" stroke-linecap="round" opacity="0.7"/><line x1="472" y1="199" x2="472.0" y2="266.0" stroke="url(#burst)" stroke-width="1.5" stroke-linecap="round" opacity="0.7"/><line x1="472" y1="199" x2="438.5" y2="257.0" stroke="url(#burst)" stroke-width="1.5" stroke-linecap="round" opacity="0.7"/><line x1="472" y1="199" x2="414.0" y2="232.5" stroke="url(#burst)" stroke-width="1.5" stroke-linecap="round" opacity="0.7"/><line x1="472" y1="199" x2="405.0" y2="199.0" stroke="url(#burst)" stroke-width="1.5" stroke-linecap="round" opacity="0.7"/><line x1="472" y1="199" x2="414.0" y2="165.5" stroke="url(#burst)" stroke-width="1.5" stroke-linecap="round" opacity="0.7"/><line x1="472" y1="199" x2="438.5" y2="141.0" stroke="url(#burst)" stroke-width="1.5" stroke-linecap="round" opacity="0.7"/><line x1="472" y1="199" x2="472.0" y2="132.0" stroke="url(#burst)" stroke-width="1.5" stroke-linecap="round" opacity="0.7"/><line x1="472" y1="199" x2="505.5" y2="141.0" stroke="url(#burst)" stroke-width="1.5" stroke-linecap="round" opacity="0.7"/><line x1="472" y1="199" x2="530.0" y2="165.5" stroke="url(#burst)" stroke-width="1.5" stroke-linecap="round" opacity="0.7"/><circle cx="472" cy="199" r="3" fill="#fde68a"/></g>
  <rect x="10" y="10" width="780" height="780" rx="16" fill="none" stroke="url(#gold)" stroke-opacity="0.35" stroke-width="2"/>
  <text x="400" y="320" text-anchor="middle" font-family="Georgia, 'Times New Roman', serif" font-size="156" fill="url(#gold)" opacity="0.92">&#10022;</text>
  <text x="400" y="463.99999999999994" text-anchor="middle" font-family="Verdana, Geneva, sans-serif" font-weight="bold" font-size="60" letter-spacing="8" fill="#f7f5f0">1000 Wala Crackers</text>
  <text x="400" y="553" text-anchor="middle" font-family="Verdana, Geneva, sans-serif" font-size="29" letter-spacing="6" fill="#b9b4a6">SPARKLERS</text>
</svg>